<?xml version="1.0" encoding="utf-8"?>
<svg xmlns="http://www.w3.org/2000/svg" viewBox="0 0 215 215">
  <link xmlns="http://www.w3.org/1999/xhtml" rel="icon" href="logo.svg"/>
  <rect fill="#ffffff" x="00" y="000" width="215" height="215"/>
  <rect fill="#2f3749" x="00" y="000" width="060" height="055" rx="20" ry="20"/>
  <rect fill="#2f3749" x="00" y="020" width="060" height="035"/>
  <rect fill="#9ea5ba" x="00" y="060" width="060" height="020"/>
  <rect fill="#e7442a" x="00" y="085" width="060" height="020"/>
  <rect fill="#2f3749" x="00" y="110" width="060" height="040"/>
  <rect fill="#6d748c" x="00" y="155" width="060" height="040"/>
  <rect fill="#6d748c" x="00" y="155" width="060" height="060" rx="20" ry="20"/>
  <rect fill="#2f3749" x="30" y="000" width="175" height="020"/>
  <rect fill="#6d748c" x="30" y="195" width="175" height="020"/>
  <path fill="#e7442a" transform="translate(80,30)" d="M 89.561 154.688 L 61.084 154.688 L 61.084 0.001 L 90.176 0.001 Q 98.396 0.001 104.154 2.322 A 21.791 21.791 0 0 1 109.072 5.054 A 24.924 24.924 0 0 1 116.772 14.695 A 33.337 33.337 0 0 1 118.564 19.512 A 63.639 63.639 0 0 1 120.427 28.448 Q 121.067 33.048 121.232 38.292 A 118.362 118.362 0 0 1 121.289 42.012 L 121.377 109.952 A 129.129 129.129 0 0 1 121.008 120.027 Q 120.623 124.932 119.837 129.094 A 55.529 55.529 0 0 1 118.257 135.484 A 33.414 33.414 0 0 1 115.301 142.288 A 23.116 23.116 0 0 1 108.149 150.03 Q 101.162 154.688 89.561 154.688 Z M 46.758 154.688 L 0 154.688 L 0 0.001 L 18.193 0.001 L 18.193 139.659 L 46.758 139.659 L 46.758 154.688 Z M 79.189 14.415 L 79.189 140.01 L 88.506 140.01 Q 93.006 140.01 96.11 138.21 A 11.289 11.289 0 0 0 96.68 137.857 Q 99.027 136.303 100.527 132.804 A 23.409 23.409 0 0 0 101.558 129.815 Q 103.021 124.515 103.167 114.942 A 142.649 142.649 0 0 0 103.184 112.764 L 103.184 41.573 Q 103.184 26.983 99.756 20.699 Q 96.328 14.415 88.506 14.415 L 79.189 14.415 Z"/>
</svg>
